<svg width="39" height="39" viewBox="0 0 39 39" fill="none" xmlns="http://www.w3.org/2000/svg">
<g filter="url(#filter0_d_0_193)">
<path d="M29.466 18.0866C24.8707 18.2658 20.5201 19.4607 16.6437 21.4411L11.6592 24.3193C10.341 25.0794 8.65748 24.6232 7.90096 23.3118L5.36776 18.9254C4.60962 17.6116 5.0615 15.9253 6.37529 15.1672L10.505 12.7825C10.7441 12.6445 11.0499 12.7263 11.1881 12.9655L14.433 18.586C14.5735 18.8293 14.8877 18.9101 15.1288 18.7615C15.362 18.6177 15.4257 18.3053 15.2887 18.0681L12.0203 12.407C11.8905 12.1821 11.9542 11.895 12.1676 11.7471C15.5769 9.38337 18.4613 6.37284 20.6763 2.8618C21.5155 1.53058 23.4709 1.5662 24.2596 2.9318L31.1966 14.9484C31.985 16.3111 31.0411 18.0254 29.466 18.0866ZM30.3561 9.7175C30.6129 8.24758 29.7514 6.77329 28.3589 6.26865C27.9212 6.11002 27.5242 6.58635 27.7569 6.98955C28.3109 7.94939 28.8669 8.91254 29.4291 9.88594C29.664 10.2925 30.2753 10.1801 30.3561 9.7175ZM18.8138 27.41L16.441 23.291C16.3031 23.0516 15.9969 22.9695 15.7576 23.1076C14.4716 23.8495 14.423 23.8784 12.7076 24.8685C12.4684 25.0066 12.3862 25.3126 12.5243 25.5518L14.9012 29.6682C15.2059 30.1953 15.7538 30.482 16.3118 30.482C16.8531 30.482 17.0601 30.2989 18.2188 29.6301C18.995 29.1819 19.2619 28.1857 18.8138 27.41ZM34.007 5.91564C34.2461 5.77758 34.3281 5.47175 34.19 5.23262C34.052 4.99355 33.7463 4.91149 33.507 5.04962L32.2132 5.79658C31.7705 6.05221 31.9557 6.72973 32.4637 6.72973C32.6416 6.72967 32.6059 6.72454 34.007 5.91564ZM29.4092 3.32463L29.7247 2.14734C29.7962 1.88059 29.6379 1.60645 29.3712 1.53495C29.1043 1.46357 28.8303 1.62177 28.7588 1.88852L28.4432 3.06581C28.3583 3.38282 28.5972 3.69539 28.9265 3.69539C29.1473 3.69533 29.3493 3.54801 29.4092 3.32463ZM34.9829 11.2547C35.0544 10.9879 34.896 10.7137 34.6293 10.6423L33.452 10.3268C33.1853 10.2555 32.9111 10.4137 32.8396 10.6804C32.7681 10.9471 32.9264 11.2213 33.1931 11.2928C34.4807 11.6378 34.41 11.6254 34.5002 11.6254C34.7209 11.6254 34.923 11.4781 34.9829 11.2547Z" fill="#E8BA03"/>
<path d="M28.466 17.0866C23.8707 17.2658 19.5201 18.4607 15.6437 20.4411L10.6592 23.3193C9.34097 24.0794 7.65748 23.6232 6.90096 22.3118L4.36776 17.9254C3.60962 16.6116 4.0615 14.9253 5.37529 14.1672L9.50497 11.7825C9.74411 11.6445 10.0499 11.7263 10.1881 11.9655L13.433 17.586C13.5735 17.8293 13.8877 17.9101 14.1288 17.7615C14.362 17.6177 14.4257 17.3053 14.2887 17.0681L11.0203 11.407C10.8905 11.1821 10.9542 10.895 11.1676 10.7471C14.5769 8.38337 17.4613 5.37284 19.6763 1.8618C20.5155 0.530577 22.4709 0.566202 23.2596 1.9318L30.1966 13.9484C30.985 15.3111 30.0411 17.0254 28.466 17.0866ZM29.3561 8.7175C29.6129 7.24758 28.7514 5.77329 27.3589 5.26865C26.9212 5.11002 26.5242 5.58635 26.7569 5.98955C27.3109 6.94939 27.8669 7.91254 28.4291 8.88594C28.664 9.29252 29.2753 9.18008 29.3561 8.7175ZM17.8138 26.41L15.441 22.291C15.3031 22.0516 14.9969 21.9695 14.7576 22.1076C13.4716 22.8495 13.423 22.8784 11.7076 23.8685C11.4684 24.0066 11.3862 24.3126 11.5243 24.5518L13.9012 28.6682C14.2059 29.1953 14.7538 29.482 15.3118 29.482C15.8531 29.482 16.0601 29.2989 17.2188 28.6301C17.995 28.1819 18.2619 27.1857 17.8138 26.41ZM33.007 4.91564C33.2461 4.77758 33.3281 4.47175 33.19 4.23262C33.052 3.99355 32.7463 3.91149 32.507 4.04962L31.2132 4.79658C30.7705 5.05221 30.9557 5.72973 31.4637 5.72973C31.6416 5.72967 31.6059 5.72454 33.007 4.91564ZM28.4092 2.32463L28.7247 1.14734C28.7962 0.880587 28.6379 0.606454 28.3712 0.534952C28.1043 0.463575 27.8303 0.621767 27.7588 0.888524L27.4432 2.06581C27.3583 2.38282 27.5972 2.69539 27.9265 2.69539C28.1473 2.69533 28.3493 2.54801 28.4092 2.32463ZM33.9829 10.2547C34.0544 9.98791 33.896 9.71372 33.6293 9.64228L32.452 9.32683C32.1853 9.25552 31.9111 9.41371 31.8396 9.6804C31.7681 9.9471 31.9264 10.2213 32.1931 10.2928C33.4807 10.6378 33.41 10.6254 33.5002 10.6254C33.7209 10.6254 33.923 10.4781 33.9829 10.2547Z" fill="white"/>
</g>
<defs>
<filter id="filter0_d_0_193" x="0" y="0.517822" width="39" height="37.9642" filterUnits="userSpaceOnUse" color-interpolation-filters="sRGB">
<feFlood flood-opacity="0" result="BackgroundImageFix"/>
<feColorMatrix in="SourceAlpha" type="matrix" values="0 0 0 0 0 0 0 0 0 0 0 0 0 0 0 0 0 0 127 0" result="hardAlpha"/>
<feOffset dy="4"/>
<feGaussianBlur stdDeviation="2"/>
<feColorMatrix type="matrix" values="0 0 0 0 0 0 0 0 0 0 0 0 0 0 0 0 0 0 0.25 0"/>
<feBlend mode="normal" in2="BackgroundImageFix" result="effect1_dropShadow_0_193"/>
<feBlend mode="normal" in="SourceGraphic" in2="effect1_dropShadow_0_193" result="shape"/>
</filter>
</defs>
</svg>
